<svg id="Camada_1" data-name="Camada 1" xmlns="http://www.w3.org/2000/svg" viewBox="0 0 383.29 383.23"><defs><style>.cls-1{fill:#0c070a;}.cls-2{fill:#ffefc9;}.cls-3{fill:#ea5791;}.cls-4{fill:#deecf8;}.cls-5{fill:#fefefe;}.cls-6{fill:#f090ba;}.cls-7{fill:#e84382;}.cls-8{fill:#e1effb;}.cls-9{fill:#d3e5f6;}.cls-10{fill:#557689;}.cls-11{fill:#56778a;}.cls-12{fill:#090b0c;}.cls-13{fill:#f9f9f9;}.cls-14{fill:#f6f5f6;}</style></defs><path class="cls-1" d="M809.31,293.94v21.7c-1,.25-.72,1.14-.83,1.81-4.11,25.11-16,45.61-36.3,61.08-3.93,3-5.25,3-9.14-.1-1.84-5.09-1.55-5.91,3.53-9.89,33.59-26.3,41.65-73.67,18.07-109.08-14.67-22-35.31-34.48-62.09-36a2.8,2.8,0,0,0-2.38-.19,4.23,4.23,0,0,0-2.83-.08,60.84,60.84,0,0,0-14.82,1.41A81.25,81.25,0,0,0,645,337.22c13,29.42,43.7,49.33,73.77,47.88a64.75,64.75,0,0,0,19.05-2.47c3.94-1.08,6.74-.28,8.63,3.38,0,5.36-.72,6.29-6.06,7.64a88.62,88.62,0,0,1-61.7-6.22,16.77,16.77,0,0,0-7.49-1.68q-49.92.08-99.86,0c-9.59,0-14.75-5.19-14.78-14.77,0-5.61-.16-11.22.06-16.83.11-2.83-.57-3.74-3.6-3.72-19.83.16-39.65.12-59.47.07-13.41,0-22.06-7.61-23.79-20.83q-3.48-26.64-6.79-53.29c-3.08-24.43-6.07-48.87-9.19-73.3s-6.42-48.82-9.38-73.26c-.34-2.83-1.4-3.52-3.77-4.15-12.3-3.23-18.4-16.53-12.11-27.29a21.22,21.22,0,0,0,3.21-12.87c-.8-14.84,12.87-26.18,28.56-24.5.06-.11.17-.22.18-.33,2.61-27.28,32.1-42.27,56-29.19,1.85,1,2.77.5,4.18-.48a25.25,25.25,0,0,1,32.71,3c2.3,2.41,12.18,7.53,15.22,8.24,2,.47,2.76-.2,3.6-1.94,6-12.46,18.94-17.72,31.87-12.9,2,.75,2.57.24,3.51-1.45a24.41,24.41,0,0,1,13.71-11.46c.82-.29,2.09,0,2.49-1.24h10.47c10.6,3.24,18,9.61,20,21,.3,1.71,1.31,1.41,2.38,1.51,25.67,2.31,41.24,28.86,30.41,52-.94,2-.67,2.7,1,4,11.89,8.83,10.36,27.46-3.32,32.52-6.06,2.24-7.48,5.34-7.73,10.63-.1,2.23-.55,4.44-.83,6.66L665.28,228c.14,0,.44.19.6.1,1-.53,1.94-1.09,2.88-1.69,19-12.15,39.74-17.41,61.89-13.68,38.31,6.46,63.24,28.92,75.17,65.9C807.45,283.63,807.62,289,809.31,293.94ZM602.74,323.88c4.44,1.6,9,.43,13.5.61l1.48,0h11.16c-.33-2-.64-3.68-.9-5.39s-.47-3.45-.65-5.19c-2.71-26.67,4.91-50.13,22.1-70.54,1.65-2,3-3.81,3.29-6.42,1-8.65,2.11-17.29,3.21-25.93q3.18-25,6.39-50c1.34-10.49,2.66-21,4.08-31.46.35-2.52-.3-3.41-3-3.31-7,.24-14,.15-20.93.19-5.61,0-11.23.19-16.81-.23-3.66-.27-4.58,1.13-4.87,4.43-1.36,15.61-2.9,31.21-4.44,46.81a6.55,6.55,0,0,0,1.57,5.07,40.46,40.46,0,0,1,8.79,25.59c0,15-6,27.72-15.27,39.09a8.55,8.55,0,0,0-2.06,5c-1.33,14.24-2.86,28.47-4.2,42.71C604.24,304.53,603.54,314.21,602.74,323.88ZM658.9,99.51c-1.37,0-2.74-.12-4.1-.12H521.74c-5.17,0-6.29-.77-7.87-5.43,1.41-4.89,2.58-5.79,7.63-5.79q74.25,0,148.49.07a5.81,5.81,0,0,0,5.85-3.38,24.83,24.83,0,0,0-2.38-28.27c-6-7.22-13.9-10.11-23.2-9.54-5.93.36-8-1.95-7.3-7.69a11.76,11.76,0,0,0-.1-3.7,13.59,13.59,0,0,0-14.29-11.07c-7.08.46-12.27,5.63-12.82,13.14-.2,2.76-1,4.92-3.61,5.94s-5,.05-7-2.1c-3.92-4.3-8.9-5.42-14.32-3.84-5.71,1.67-8.7,5.83-9.56,11.68-.83,5.55-3.45,7.12-8.88,5.35a28.79,28.79,0,0,0-14.73-.94c-6.15,1.21-7.63.28-9.29-5.77a13.69,13.69,0,0,0-23.12-6.12c-5.16,5.2-5.8,5.16-11.86,1.08C504,36.64,494,36.11,484.27,42c-9.53,5.74-13.52,14.62-12.1,25.72.37,3-.45,5.14-3.1,6.52-2.23,1.16-4.26.36-6.38-.58-8.72-3.9-18.63,1.51-19.7,10.68-.31,2.62.12,4,3.46,4,13.84-.22,27.68-.11,41.52-.11,5,0,6.28,1,7.63,5.77-1.5,4.61-2.71,5.45-7.85,5.45-13.95,0-27.9,0-41.85,0-5,0-8.58,3.56-8.46,8s3.64,7.53,8.45,7.67c.87,0,1.75,0,2.62,0H654.8c1.36,0,2.73-.08,4.1-.12,6,0,11.94.19,17.9.08a7.81,7.81,0,0,0,0-15.62C670.84,99.31,664.87,99.47,658.9,99.51ZM478,126.32q-10.09,0-20.19,0c-1.39,0-2.67-.29-2.31,2,.94,6,1.63,12.07,2.4,18.11q3.22,25.17,6.42,50.32,2.79,21.84,5.57,43.66,3.19,25,6.4,49.95c1.72,13.32,3.38,26.64,5.22,39.94.65,4.73,4.16,8.33,8.59,8.46,9.71.26,19.44.13,29.16.19,1.46,0,1.89-.43,1.73-2-1-10.27-2-20.56-3-30.84-1.7-17.84-3.43-35.68-5.06-53.52a7.79,7.79,0,0,0-2-4.62,64.08,64.08,0,0,1-10.3-15.92c-7.54-17.48-8-34.44,4.19-50.28,1-1.28.84-2.49.72-3.85-1.55-16.48-3.14-33-4.55-49.45-.19-2.24-1.25-2.24-2.87-2.23C491.49,126.35,484.76,126.32,478,126.32Zm137.45,81.84c.29-1.59-.36-3.78-.76-6-2.17-12-11.42-21-22.86-22.51-9.82-1.28-20,5.14-25,16-1.2,2.58-2.74,4.57-5.72,4.61-3.17,0-4.71-2.11-6-4.79-4.86-10.37-14.35-16.56-24-15.86-10.34.75-19.27,8-22.67,18.86-4.2,13.42-.65,25.64,7,36.73,11.16,16.14,27,26.49,44.34,35,1.3.63,2.14.12,3.08-.35,13.67-6.85,26.32-15.15,36.8-26.43C608.76,233.64,614.89,222.5,615.48,208.16Zm-98.9-36.22c17-7.06,31.36-3.75,43.26,9.81,1.77,2,2.14.11,2.88-.69,9.16-10,20.25-14.6,33.81-12a85.3,85.3,0,0,1,9.12,2.76c1.33-14.22,2.5-28.24,4-42.22.35-3.2-.81-3.31-3.31-3.3q-45.45.1-90.9,0c-3.08,0-3.42,1-3.12,3.59.85,7.42,1.46,14.86,2.19,22.3C515.19,158.67,515.89,165.21,516.58,171.94Zm8.53,90c1,10.2,1.91,19.61,2.82,29,1.48,15.24,3,30.47,4.36,45.72.18,2.12,1,2.34,2.76,2.32,6.11-.06,12.22-.17,18.32.05,2.61.09,3.23-.86,3.55-3.25,1-7.11,5.82-11.18,13-11.21,6,0,12-.17,18,.08,2.7.11,3.42-1,3.57-3.32.3-4.6.72-9.19,1.16-13.77,1.38-14.25,2.8-28.49,4.16-42.74.08-.85.44-1.89-.42-2.76A181.24,181.24,0,0,1,568,280c-4.92,2.56-9,2.49-13.91,0A191.82,191.82,0,0,1,525.11,262Zm97.13,93.11c0-5.47-.07-10.95,0-16.43,0-2-.4-2.9-2.65-2.84-5.47.14-11,.11-16.42,0-2,0-2.53.75-2.52,2.64.06,10.95.09,21.9,0,32.85,0,2.4.93,2.93,3.09,2.88,5.1-.11,10.21-.19,15.31,0,2.77.12,3.3-1,3.23-3.46C622.12,365.53,622.24,360.3,622.24,355.07ZM589.35,355c0-5.48-.05-11,0-16.44,0-1.79-.31-2.75-2.43-2.7q-8,.18-16.07,0c-2.26-.05-2.71,1-2.7,2.95q.08,16.26,0,32.52c0,2,.57,2.94,2.75,2.89,5.23-.1,10.46-.11,15.69,0,2.13.05,2.81-.68,2.77-2.78C589.27,365.92,589.35,360.43,589.35,355Zm44.12-13.88q0,15.1,0,30.21c0,1.3-.37,2.87,1.83,2.86,7.4,0,14.81,0,23.13,0a100.27,100.27,0,0,1-14.23-15.71C640.18,352.94,637.07,346.92,633.47,341.07Z" transform="translate(-426.01 -13.33)"/><path class="cls-2" d="M495.6,93.93c-1.35-4.8-2.62-5.77-7.63-5.77-13.84,0-27.68-.11-41.52.11-3.34,0-3.77-1.34-3.46-4,1.07-9.17,11-14.58,19.7-10.68,2.12.94,4.15,1.74,6.38.58,2.65-1.38,3.47-3.55,3.1-6.52-1.42-11.1,2.57-20,12.1-25.72,9.72-5.86,19.69-5.33,29.15,1,6.06,4.08,6.7,4.12,11.86-1.08A13.69,13.69,0,0,1,548.4,48c1.66,6.05,3.14,7,9.29,5.77a28.79,28.79,0,0,1,14.73.94c5.43,1.77,8.05.2,8.88-5.35.86-5.85,3.85-10,9.56-11.68,5.42-1.58,10.4-.46,14.32,3.84,2,2.15,4.18,3.18,7,2.1s3.41-3.18,3.61-5.94c.55-7.51,5.74-12.68,12.82-13.14a13.59,13.59,0,0,1,14.29,11.07,11.76,11.76,0,0,1,.1,3.7c-.7,5.74,1.37,8,7.3,7.69,9.3-.57,17.16,2.32,23.2,9.54a24.83,24.83,0,0,1,2.38,28.27A5.81,5.81,0,0,1,670,88.23q-74.25-.17-148.49-.07c-5,0-6.22.9-7.63,5.79Z" transform="translate(-426.01 -13.33)"/><path class="cls-3" d="M478,126.32c6.73,0,13.46,0,20.19,0,1.62,0,2.68,0,2.87,2.23,1.41,16.49,3,33,4.55,49.45.12,1.36.26,2.57-.72,3.85-12.18,15.84-11.73,32.8-4.19,50.28A64.08,64.08,0,0,0,511,248a7.79,7.79,0,0,1,2,4.62c1.63,17.84,3.36,35.68,5.06,53.52,1,10.28,1.92,20.57,3,30.84.16,1.54-.27,2-1.73,2-9.72-.06-19.45.07-29.16-.19-4.43-.13-7.94-3.73-8.59-8.46-1.84-13.3-3.5-26.62-5.22-39.94q-3.21-25-6.4-49.95-2.79-21.82-5.57-43.66-3.19-25.15-6.42-50.32c-.77-6-1.46-12.1-2.4-18.11-.36-2.33.92-2,2.31-2Q467.94,126.34,478,126.32Z" transform="translate(-426.01 -13.33)"/><path class="cls-4" d="M720.17,223.28a2.8,2.8,0,0,1,2.38.19c-.08,1.25.83,1.72,1.74,2.13a74,74,0,0,1,20.06,13.1c3,2.88,7.22,4.91,8.1,9.64l-3,1.3a17.19,17.19,0,0,0-4.91,28.21c7,6.64,16.84,6.08,25-1.43l2.45,10.2c-.84.17-1.68.39-2.53.51a16.76,16.76,0,0,0-14.1,14.62c-1.24,11.09,5.77,18.66,18.07,19.51-1.92.83-1.66,2.79-2.3,4.31-.72,1.72,0,4.1-2.34,5.09-.68-.51-1.36-1.05-2.06-1.54-5.51-3.89-11.44-4.6-17.55-1.79S740,335,739.4,341.62c-.72,8.31,4,14.51,13.78,18.22-.14.47-.15,1.06-.45,1.39-9.55,10.47-20.49,19-34,23.87C688.7,386.55,658,366.64,645,337.22a81.25,81.25,0,0,1,57.52-112.61,60.84,60.84,0,0,1,14.82-1.41A2.65,2.65,0,0,0,720.17,223.28ZM746.33,304a28.29,28.29,0,1,0-56.57.26c.13,15.51,12.91,28.37,28.23,28.42S746.43,319.57,746.33,304Zm-66.52-21.32a17.2,17.2,0,1,0-17.15-17A17.19,17.19,0,0,0,679.81,282.71ZM664,287.16a17,17,0,0,0-17.11,16.94,17,17,0,1,0,34.08.16A17,17,0,0,0,664,287.16Zm54.12,54.62a17.09,17.09,0,0,0-17.1,17A17.49,17.49,0,0,0,718,376.15c9.33.13,17.29-7.87,17.25-17.35A17,17,0,0,0,718.16,341.78Zm-38.34,18.27A17.13,17.13,0,1,0,662.76,343,17.18,17.18,0,0,0,679.82,360.05Zm38.1-93.52a17.13,17.13,0,1,0-17.08-17A17.22,17.22,0,0,0,717.92,266.53Z" transform="translate(-426.01 -13.33)"/><path class="cls-5" d="M615.48,208.16c-.59,14.34-6.72,25.48-15.77,35.22-10.48,11.28-23.13,19.58-36.8,26.43-.94.47-1.78,1-3.08.35-17.29-8.49-33.18-18.84-44.34-35-7.66-11.09-11.21-23.31-7-36.73,3.4-10.87,12.33-18.11,22.67-18.86,9.68-.7,19.17,5.49,24,15.86,1.25,2.68,2.79,4.84,6,4.79,3,0,4.52-2,5.72-4.61,5-10.82,15.18-17.24,25-16,11.44,1.5,20.69,10.56,22.86,22.51C615.12,204.38,615.77,206.57,615.48,208.16Z" transform="translate(-426.01 -13.33)"/><path class="cls-6" d="M516.58,171.94c-.69-6.73-1.39-13.27-2-19.81-.73-7.44-1.34-14.88-2.19-22.3-.3-2.63,0-3.6,3.12-3.59q45.45.21,90.9,0c2.5,0,3.66.1,3.31,3.3-1.53,14-2.7,28-4,42.22a85.3,85.3,0,0,0-9.12-2.76c-13.56-2.58-24.65,2-33.81,12-.74.8-1.11,2.7-2.88.69C547.94,168.19,533.57,164.88,516.58,171.94Z" transform="translate(-426.01 -13.33)"/><path class="cls-6" d="M525.11,262A191.82,191.82,0,0,0,554,280c4.91,2.51,9,2.58,13.91,0a181.24,181.24,0,0,0,28.39-17.93c.86.87.5,1.91.42,2.76-1.36,14.25-2.78,28.49-4.16,42.74-.44,4.58-.86,9.17-1.16,13.77-.15,2.36-.87,3.43-3.57,3.32-6-.25-12-.09-18-.08-7.18,0-12,4.1-13,11.21-.32,2.39-.94,3.34-3.55,3.25-6.1-.22-12.21-.11-18.32-.05-1.72,0-2.58-.2-2.76-2.32-1.35-15.25-2.88-30.48-4.36-45.72C527,281.57,526.1,272.16,525.11,262Z" transform="translate(-426.01 -13.33)"/><path class="cls-7" d="M642.44,126.45c7,0,14,0,20.93-.19,2.73-.1,3.38.79,3,3.31-1.42,10.48-2.74,21-4.08,31.46q-3.21,25-6.39,50c-1.1,8.64-2.21,17.28-3.21,25.93-.3,2.61-1.64,4.46-3.29,6.42-17.19,20.41-24.81,43.87-22.1,70.54.18,1.74.4,3.46.65,5.19s.57,3.42.9,5.39H617.72c-.18-7.23,1.55-14.26,2.3-21.4.93-8.73,2-17.45,3.09-26.16,1.66-13.12,3.42-26.23,5.12-39.35,1.12-8.58,2.2-17.17,3.31-25.76q2.07-16.19,4.17-32.37,1.68-13.06,3.35-26.12Q640.76,139.89,642.44,126.45Z" transform="translate(-426.01 -13.33)"/><path class="cls-8" d="M495.6,93.93l18.27,0c1.58,4.66,2.7,5.43,7.87,5.43H654.8c1.36,0,2.73.08,4.1.12a21.36,21.36,0,0,1,0,15.46c-1.37,0-2.74.12-4.1.12H448.51c-.87,0-1.75,0-2.62,0-4.81-.14-8.34-3.35-8.45-7.67s3.49-8,8.46-8c14-.06,27.9,0,41.85,0C492.89,99.38,494.1,98.54,495.6,93.93Z" transform="translate(-426.01 -13.33)"/><path class="cls-3" d="M642.44,126.45q-1.7,13.42-3.38,26.86-1.66,13.06-3.35,26.12-2.09,16.19-4.17,32.37c-1.11,8.59-2.19,17.18-3.31,25.76-1.7,13.12-3.46,26.23-5.12,39.35C622,285.62,621,294.34,620,303.07c-.75,7.14-2.48,14.17-2.3,21.4l-1.48,0c-4.45-1.39-9-.25-13.5-.61.8-9.67,1.5-19.35,2.41-29,1.34-14.24,2.87-28.47,4.2-42.71a8.55,8.55,0,0,1,2.06-5c9.31-11.37,15.28-24.1,15.27-39.09a40.46,40.46,0,0,0-8.79-25.59,6.55,6.55,0,0,1-1.57-5.07c1.54-15.6,3.08-31.2,4.44-46.81.29-3.3,1.21-4.7,4.87-4.43C631.21,126.64,636.83,126.41,642.44,126.45Z" transform="translate(-426.01 -13.33)"/><path class="cls-9" d="M771.94,286.62q-1.23-5.1-2.45-10.2c4.58-7,5.43-14.08.42-21.19-4.26-6.06-10.46-7.58-17.46-6.89-.88-4.73-5.06-6.76-8.1-9.64a74,74,0,0,0-20.06-13.1c-.91-.41-1.82-.88-1.74-2.13,26.78,1.51,47.42,14,62.09,36,23.58,35.41,15.52,82.78-18.07,109.08-5.08,4-5.37,4.8-3.53,9.89-5.54,2.5-10.7,5.85-16.59,7.58-1.89-3.66-4.69-4.46-8.63-3.38a64.75,64.75,0,0,1-19.05,2.47c13.47-4.9,24.41-13.4,34-23.87.3-.33.31-.92.45-1.39,5,.25,9.84-.32,13.92-3.75,7.72-6.49,8.35-15.78,1.64-25.43,2.3-1,1.62-3.37,2.34-5.09.64-1.52.38-3.48,2.3-4.31,13.47-1.73,18.86-14.93,14.06-24.75C784.31,290.1,778.78,287.28,771.94,286.62Z" transform="translate(-426.01 -13.33)"/><path class="cls-10" d="M622.24,355.07c0,5.23-.12,10.46,0,15.68.07,2.48-.46,3.58-3.23,3.46-5.1-.22-10.21-.14-15.31,0-2.16.05-3.11-.48-3.09-2.88.11-10.95.08-21.9,0-32.85,0-1.89.5-2.68,2.52-2.64,5.47.1,10.95.13,16.42,0,2.25-.06,2.69.85,2.65,2.84C622.17,344.12,622.24,349.6,622.24,355.07Z" transform="translate(-426.01 -13.33)"/><path class="cls-11" d="M589.35,355c0,5.48-.08,11,0,16.45,0,2.1-.64,2.83-2.77,2.78-5.23-.12-10.46-.11-15.69,0-2.18.05-2.77-.87-2.75-2.89q.09-16.26,0-32.52c0-1.94.44-3,2.7-2.95q8,.18,16.07,0c2.12-.05,2.45.91,2.43,2.7C589.3,344,589.35,349.47,589.35,355Z" transform="translate(-426.01 -13.33)"/><path class="cls-9" d="M658.9,115a21.36,21.36,0,0,0,0-15.46c6,0,11.94-.2,17.9-.08a7.81,7.81,0,0,1,0,15.62C670.84,115.16,664.87,115,658.9,115Z" transform="translate(-426.01 -13.33)"/><path class="cls-10" d="M633.47,341.07c3.6,5.85,6.71,11.87,10.74,17.35a100.27,100.27,0,0,0,14.23,15.71c-8.32,0-15.73,0-23.13,0-2.2,0-1.83-1.56-1.83-2.86Q633.47,356.17,633.47,341.07Z" transform="translate(-426.01 -13.33)"/><path class="cls-7" d="M602.74,323.88c4.49.36,9-.78,13.5.61C611.74,324.31,607.18,325.48,602.74,323.88Z" transform="translate(-426.01 -13.33)"/><path class="cls-9" d="M720.17,223.28a2.65,2.65,0,0,1-2.83-.08A4.23,4.23,0,0,1,720.17,223.28Z" transform="translate(-426.01 -13.33)"/><path class="cls-12" d="M746.33,304c.1,15.54-12.94,28.73-28.34,28.68s-28.1-12.91-28.23-28.42a28.29,28.29,0,1,1,56.57-.26Zm-28.39-16.91a17.06,17.06,0,0,0,0,34.11,17.06,17.06,0,0,0,0-34.11Z" transform="translate(-426.01 -13.33)"/><path class="cls-12" d="M679.81,282.71a17.2,17.2,0,1,1,17-17.19A17.17,17.17,0,0,1,679.81,282.71Zm5.64-17.13a6.05,6.05,0,0,0-5.51-6,5.94,5.94,0,1,0-.12,11.88A6,6,0,0,0,685.45,265.58Z" transform="translate(-426.01 -13.33)"/><path class="cls-12" d="M752.45,248.34c7-.69,13.2.83,17.46,6.89,5,7.11,4.16,14.22-.42,21.19-8.15,7.51-17.94,8.07-25,1.43a17.19,17.19,0,0,1,4.91-28.21Zm9.6,16.84a5.85,5.85,0,0,0-11.69.16,5.85,5.85,0,1,0,11.69-.16Z" transform="translate(-426.01 -13.33)"/><path class="cls-12" d="M771.94,286.62c6.84.66,12.37,3.48,15.5,9.89,4.8,9.82-.59,23-14.06,24.75-12.3-.85-19.31-8.42-18.07-19.51a16.76,16.76,0,0,1,14.1-14.62C770.26,287,771.1,286.79,771.94,286.62Zm5.94,17.24a5.76,5.76,0,0,0-5.74-5.65,5.81,5.81,0,1,0,.34,11.61A5.75,5.75,0,0,0,777.88,303.86Z" transform="translate(-426.01 -13.33)"/><path class="cls-12" d="M664,287.16a17,17,0,0,1,17,17.1,17,17,0,1,1-34.08-.16A17,17,0,0,1,664,287.16Zm0,11.25a5.84,5.84,0,0,0-5.92,5.8,6.11,6.11,0,0,0,5.83,6,5.91,5.91,0,0,0,5.65-5.74A5.71,5.71,0,0,0,664.08,298.41Z" transform="translate(-426.01 -13.33)"/><path class="cls-12" d="M718.16,341.78a17,17,0,0,1,17.06,17c0,9.48-7.92,17.48-17.25,17.35a17.49,17.49,0,0,1-16.91-17.36A17.09,17.09,0,0,1,718.16,341.78Zm0,23.07a6.14,6.14,0,0,0,5.85-6,5.84,5.84,0,0,0-5.91-5.82,5.76,5.76,0,0,0-5.64,5.7A6,6,0,0,0,718.11,364.85Z" transform="translate(-426.01 -13.33)"/><path class="cls-12" d="M768.74,330.66c6.71,9.65,6.08,18.94-1.64,25.43-4.08,3.43-8.88,4-13.92,3.75-9.79-3.71-14.5-9.91-13.78-18.22.57-6.58,3.72-11.52,9.73-14.29s12-2.1,17.55,1.79C767.38,329.61,768.06,330.15,768.74,330.66Zm-6.58,12.09a6.11,6.11,0,0,0-6-5.91,5.94,5.94,0,0,0-5.51,6,5.73,5.73,0,0,0,5.57,5.81A5.83,5.83,0,0,0,762.16,342.75Z" transform="translate(-426.01 -13.33)"/><path class="cls-1" d="M679.82,360.05a17.13,17.13,0,1,1,17.17-17A17.19,17.19,0,0,1,679.82,360.05Zm5.9-17.22A5.84,5.84,0,0,0,674,343a5.84,5.84,0,0,0,11.68-.19Z" transform="translate(-426.01 -13.33)"/><path class="cls-1" d="M717.92,266.53a17.13,17.13,0,1,1,17.12-17A17.16,17.16,0,0,1,717.92,266.53Zm.1-11.32a5.81,5.81,0,0,0-.2-11.62,5.81,5.81,0,1,0,.2,11.62Z" transform="translate(-426.01 -13.33)"/><path class="cls-5" d="M717.94,287.12a17.06,17.06,0,1,1-16.67,17.23A16.78,16.78,0,0,1,717.94,287.12Z" transform="translate(-426.01 -13.33)"/><path class="cls-13" d="M685.45,265.58a6,6,0,0,1-5.63,5.88,6,6,0,1,1,5.63-5.88Z" transform="translate(-426.01 -13.33)"/><path class="cls-14" d="M762.05,265.18a5.85,5.85,0,1,1-11.69.16,5.85,5.85,0,0,1,11.69-.16Z" transform="translate(-426.01 -13.33)"/><path class="cls-13" d="M777.88,303.86a5.75,5.75,0,0,1-5.4,6,5.81,5.81,0,1,1-.34-11.61A5.76,5.76,0,0,1,777.88,303.86Z" transform="translate(-426.01 -13.33)"/><path class="cls-13" d="M664.08,298.41a5.71,5.71,0,0,1,5.56,6.08,5.91,5.91,0,0,1-5.65,5.74,6.11,6.11,0,0,1-5.83-6A5.84,5.84,0,0,1,664.08,298.41Z" transform="translate(-426.01 -13.33)"/><path class="cls-13" d="M718.11,364.85a6,6,0,0,1-5.7-6.12,5.76,5.76,0,0,1,5.64-5.7,5.84,5.84,0,0,1,5.91,5.82A6.14,6.14,0,0,1,718.11,364.85Z" transform="translate(-426.01 -13.33)"/><path class="cls-13" d="M762.16,342.75a5.83,5.83,0,0,1-5.94,5.85,5.73,5.73,0,0,1-5.57-5.81,5.94,5.94,0,0,1,5.51-6A6.11,6.11,0,0,1,762.16,342.75Z" transform="translate(-426.01 -13.33)"/><path class="cls-13" d="M685.72,342.83A5.84,5.84,0,0,1,674,343a5.84,5.84,0,0,1,11.68-.19Z" transform="translate(-426.01 -13.33)"/><path class="cls-13" d="M718,255.21a5.81,5.81,0,1,1-.2-11.62,5.81,5.81,0,0,1,.2,11.62Z" transform="translate(-426.01 -13.33)"/></svg>